HIERARCHY
ROOT Hips
{
    OFFSET   0.000000   0.000000   0.000000
    CHANNELS 6 Xposition Yposition Zposition Zrotation Xrotation Yrotation
    JOINT Chest
    {
        OFFSET   0.000000   8.007230   0.000000
        CHANNELS 3 Zrotation Xrotation Yrotation
        JOINT Chest2
        {
            OFFSET   0.000000  22.077100   0.000000
            CHANNELS 3 Zrotation Xrotation Yrotation
            JOINT Neck
            {
                OFFSET   0.000000  23.254800   0.000000
                CHANNELS 3 Zrotation Xrotation Yrotation
                JOINT Head
                {
                    OFFSET   0.000010  14.370000   1.956600
                    CHANNELS 3 Zrotation Xrotation Yrotation
                    End Site
                    {
                        OFFSET   0.000000  19.566000   0.000000
                    }
                }
            }
            JOINT LeftCollar
            {
                OFFSET   3.911900  19.017000  -0.467062
                CHANNELS 3 Zrotation Xrotation Yrotation
                JOINT LeftShoulder
                {
                    OFFSET  10.383700   0.000000   0.000000
                    CHANNELS 3 Zrotation Xrotation Yrotation
                    JOINT LeftElbow
                    {
                        OFFSET  26.662100   0.001193   0.000835
                        CHANNELS 3 Zrotation Xrotation Yrotation
                        JOINT LeftWrist
                        {
                            OFFSET  28.869000  -0.000058  -0.000075
                            CHANNELS 3 Zrotation Xrotation Yrotation
                            JOINT LeftFinger0
                            {
                                OFFSET   2.044660  -2.323460   3.252850
                                CHANNELS 3 Zrotation Xrotation Yrotation
                                JOINT LeftFinger01
                                {
                                    OFFSET   3.088130   0.000000   0.000000
                                    CHANNELS 3 Zrotation Xrotation Yrotation
                                    JOINT LeftFinger02
                                    {
                                        OFFSET   2.639450   0.000000   0.000000
                                        CHANNELS 3 Zrotation Xrotation Yrotation
                                        End Site
                                        {
                                            OFFSET   2.582190   0.000000   0.000000
                                        }
                                    }
                                }
                            }
                            JOINT LeftFinger1
                            {
                                OFFSET   8.364480   0.000000   3.252850
                                CHANNELS 3 Zrotation Xrotation Yrotation
                                JOINT LeftFinger11
                                {
                                    OFFSET   4.646920   0.000000   0.000000
                                    CHANNELS 3 Zrotation Xrotation Yrotation
                                    JOINT LeftFinger12
                                    {
                                        OFFSET   2.323460   0.000000   0.000000
                                        CHANNELS 3 Zrotation Xrotation Yrotation
                                        End Site
                                        {
                                            OFFSET   2.273050   0.000000   0.000000
                                        }
                                    }
                                }
                            }
                            JOINT LeftFinger2
                            {
                                OFFSET   8.364490   0.000016   1.078090
                                CHANNELS 3 Zrotation Xrotation Yrotation
                                JOINT LeftFinger21
                                {
                                    OFFSET   5.111620   0.000000   0.000000
                                    CHANNELS 3 Zrotation Xrotation Yrotation
                                    JOINT LeftFinger22
                                    {
                                        OFFSET   2.788150   0.000012   0.000000
                                        CHANNELS 3 Zrotation Xrotation Yrotation
                                        End Site
                                        {
                                            OFFSET   2.727660   0.000000   0.000000
                                        }
                                    }
                                }
                            }
                            JOINT LeftFinger3
                            {
                                OFFSET   7.899780   0.000014  -1.078090
                                CHANNELS 3 Zrotation Xrotation Yrotation
                                JOINT LeftFinger31
                                {
                                    OFFSET   4.646930   0.000000   0.000000
                                    CHANNELS 3 Zrotation Xrotation Yrotation
                                    JOINT LeftFinger32
                                    {
                                        OFFSET   2.323470   0.000000   0.000000
                                        CHANNELS 3 Zrotation Xrotation Yrotation
                                        End Site
                                        {
                                            OFFSET   2.273050   0.000000   0.000000
                                        }
                                    }
                                }
                            }
                            JOINT LeftFinger4
                            {
                                OFFSET   7.435090   0.000000  -3.252850
                                CHANNELS 3 Zrotation Xrotation Yrotation
                                JOINT LeftFinger41
                                {
                                    OFFSET   3.717550   0.000000   0.000000
                                    CHANNELS 3 Zrotation Xrotation Yrotation
                                    JOINT LeftFinger42
                                    {
                                        OFFSET   1.858770   0.000000   0.000000
                                        CHANNELS 3 Zrotation Xrotation Yrotation
                                        End Site
                                        {
                                            OFFSET   1.818440   0.000000   0.000000
                                        }
                                    }
                                }
                            }
                        }
                    }
                }
            }
            JOINT RightCollar
            {
                OFFSET  -3.911900  19.017000  -0.467063
                CHANNELS 3 Zrotation Xrotation Yrotation
                JOINT RightShoulder
                {
                    OFFSET -10.383700   0.000023   0.000000
                    CHANNELS 3 Zrotation Xrotation Yrotation
                    JOINT RightElbow
                    {
                        OFFSET -26.662100   0.001246   0.001011
                        CHANNELS 3 Zrotation Xrotation Yrotation
                        JOINT RightWrist
                        {
                            OFFSET -28.869000  -0.000026  -0.000078
                            CHANNELS 3 Zrotation Xrotation Yrotation
                            JOINT RightFinger0
                            {
                                OFFSET  -2.044660  -2.323490   3.252850
                                CHANNELS 3 Zrotation Xrotation Yrotation
                                JOINT RightFinger01
                                {
                                    OFFSET  -3.088130   0.000000   0.000000
                                    CHANNELS 3 Zrotation Xrotation Yrotation
                                    JOINT RightFinger02
                                    {
                                        OFFSET  -2.639460   0.000000   0.000000
                                        CHANNELS 3 Zrotation Xrotation Yrotation
                                        End Site
                                        {
                                            OFFSET  -2.582190   0.000000   0.000000
                                        }
                                    }
                                }
                            }
                            JOINT RightFinger1
                            {
                                OFFSET  -8.364480   0.000000   3.252850
                                CHANNELS 3 Zrotation Xrotation Yrotation
                                JOINT RightFinger11
                                {
                                    OFFSET  -4.646920   0.000000   0.000000
                                    CHANNELS 3 Zrotation Xrotation Yrotation
                                    JOINT RightFinger12
                                    {
                                        OFFSET  -2.323470   0.000000   0.000000
                                        CHANNELS 3 Zrotation Xrotation Yrotation
                                        End Site
                                        {
                                            OFFSET  -2.273050   0.000000   0.000000
                                        }
                                    }
                                }
                            }
                            JOINT RightFinger2
                            {
                                OFFSET  -8.364480   0.000000   1.078090
                                CHANNELS 3 Zrotation Xrotation Yrotation
                                JOINT RightFinger21
                                {
                                    OFFSET  -5.111620   0.000000   0.000000
                                    CHANNELS 3 Zrotation Xrotation Yrotation
                                    JOINT RightFinger22
                                    {
                                        OFFSET  -2.788160   0.000000   0.000000
                                        CHANNELS 3 Zrotation Xrotation Yrotation
                                        End Site
                                        {
                                            OFFSET  -2.727660   0.000000   0.000000
                                        }
                                    }
                                }
                            }
                            JOINT RightFinger3
                            {
                                OFFSET  -7.899780   0.000000  -1.078090
                                CHANNELS 3 Zrotation Xrotation Yrotation
                                JOINT RightFinger31
                                {
                                    OFFSET  -4.646930   0.000000   0.000000
                                    CHANNELS 3 Zrotation Xrotation Yrotation
                                    JOINT RightFinger32
                                    {
                                        OFFSET  -2.323470   0.000000   0.000000
                                        CHANNELS 3 Zrotation Xrotation Yrotation
                                        End Site
                                        {
                                            OFFSET  -2.273050   0.000000   0.000000
                                        }
                                    }
                                }
                            }
                            JOINT RightFinger4
                            {
                                OFFSET  -7.435090   0.000000  -3.252850
                                CHANNELS 3 Zrotation Xrotation Yrotation
                                JOINT RightFinger41
                                {
                                    OFFSET  -3.717550   0.000000   0.000000
                                    CHANNELS 3 Zrotation Xrotation Yrotation
                                    JOINT RightFinger42
                                    {
                                        OFFSET  -1.858760   0.000000   0.000000
                                        CHANNELS 3 Zrotation Xrotation Yrotation
                                        End Site
                                        {
                                            OFFSET  -1.818440   0.000000   0.000000
                                        }
                                    }
                                }
                            }
                        }
                    }
                }
            }
        }
    }
    JOINT LeftHip
    {
        OFFSET   9.783010   0.000000   0.000000
        CHANNELS 3 Zrotation Xrotation Yrotation
        JOINT LeftKnee
        {
            OFFSET   0.000073 -41.789100   0.001749
            CHANNELS 3 Zrotation Xrotation Yrotation
            JOINT LeftAnkle
            {
                OFFSET   0.000111 -41.133200  -0.000179
                CHANNELS 3 Zrotation Xrotation Yrotation
                JOINT LeftToe
                {
                    OFFSET   0.000000  -6.358960  14.674500
                    CHANNELS 3 Zrotation Xrotation Yrotation
                    End Site
                    {
                        OFFSET   0.000000   0.000000   3.913200
                    }
                }
            }
        }
    }
    JOINT RightHip
    {
        OFFSET  -9.783010   0.000000   0.000000
        CHANNELS 3 Zrotation Xrotation Yrotation
        JOINT RightKnee
        {
            OFFSET   0.000424 -41.789200   0.005205
            CHANNELS 3 Zrotation Xrotation Yrotation
            JOINT RightAnkle
            {
                OFFSET   0.000000 -41.133200  -0.000155
                CHANNELS 3 Zrotation Xrotation Yrotation
                JOINT RightToe
                {
                    OFFSET   0.000000  -6.358960  14.674500
                    CHANNELS 3 Zrotation Xrotation Yrotation
                    End Site
                    {
                        OFFSET   0.000000   0.000000   3.913200
                    }
                }
            }
        }
    }
}
MOTION
Frames: 5
Frame Time:   0.016667
 -0.283550  89.491400   2.627330  -2.719780 -10.536100  -0.793463   0.533567   6.040820  -0.390096   1.118170  12.077600  -0.844215   0.960904  -1.546650   0.032287   1.581980  -3.133400   5.480060  -8.335610  -3.772810   1.096400 -73.438100  17.666500   5.701900  -1.986170 -10.682300 -21.998700  12.568500  -8.557900  -0.545592  38.762100  29.531300 -54.811300 -30.738200  -0.003217  -0.001871 -10.369100  -0.001289  -0.001761 -25.745100   3.221310  -6.646420 -21.217300   0.003171   0.002258 -14.852100   0.002243  -0.000982 -27.882900  -1.626520   3.071490 -31.499800   0.008563   0.001862 -20.978800   0.002926   0.008874 -28.507000  -1.659740   3.053680 -36.653700   0.002767   0.004811 -24.411400   0.005347   0.003657 -37.057800  -2.095900   2.772690 -55.662900  -0.000693   0.002867 -37.071600  -0.001421   0.001323  12.933800  -0.545248  10.450000  68.571200  13.962700  -5.293350  -2.628220  -4.392480  16.084300 -12.730900  -5.439620   4.378690 -39.435000  29.605000  62.167100  27.671100  -0.008276  -0.010223   8.843230  -0.003455  -0.007740  26.956200   8.038100  15.368100  22.951200   0.001930  -0.003389  16.059600   0.000676  -0.002666  28.234900   2.677100   4.973310  34.568000  -0.006246  -0.001723  23.022300   0.010889   0.012190  28.576600   2.707590   4.956800  38.913900   0.001682   0.002034  25.916600   0.001858   0.000804  27.588300   1.615720   3.088150  41.447600  -0.004768  -0.000987  27.604100  -0.001415  -0.000641   2.473620  13.849900   5.538990   1.380020   0.039496   5.194800  -1.284490  -4.018100   1.894710   0.000000   0.000000   0.000000   2.732650  13.464800   0.285660  -0.124054   1.076550  -9.543310  -0.452981  -4.740870  -1.242900  -0.000000   0.000000  -0.000000
 -0.283752  89.491400   2.617900  -2.723960 -10.538600  -0.792836   0.533536   6.042900  -0.387976   1.117980  12.081800  -0.839986   0.983181  -1.567380   0.032266   1.618440  -3.175440   5.435430  -8.334890  -3.753510   1.112050 -73.445300  17.711800   5.636960  -1.958460 -10.720600 -22.000800  12.554800  -8.649220  -0.512247  38.744200  29.491600 -54.765800 -30.742100  -0.003239  -0.001861 -10.371100  -0.001303  -0.001788 -25.761500   3.207350  -6.613240 -21.230000   0.003158   0.002254 -14.861000   0.002242  -0.000985 -27.881100  -1.647470   3.110840 -31.508900   0.008604   0.001824 -20.984900   0.002940   0.008914 -28.504700  -1.681200   3.092750 -36.685900   0.002765   0.004815 -24.432800   0.005368   0.003660 -37.071800  -2.123500   2.807680 -55.685200  -0.000692   0.002890 -37.086400  -0.001433   0.001334  12.943500  -0.545621  10.463800  68.580300  13.979500  -5.307690  -2.625210  -4.402700  16.085200 -12.738300  -5.441860   4.378710 -39.441400  29.604900  62.167300  27.672200  -0.008272  -0.010212   8.842980  -0.003459  -0.007748  26.952400   8.043480  15.383200  22.945500   0.001924  -0.003385  16.059400   0.000675  -0.002667  28.234000   2.682220   4.982550  34.570500  -0.006244  -0.001731  23.023900   0.010891   0.012191  28.575800   2.712730   4.966030  38.913900   0.001684   0.002028  25.916600   0.001858   0.000800  27.588800   1.615720   3.088140  41.448400  -0.004768  -0.000986  27.604700  -0.001418  -0.000643   2.479200  13.858200   5.535120   1.378800   0.020209   5.199660  -1.284580  -4.004060   1.893740  -0.000000   0.000000   0.000000   2.734560  13.465200   0.285658  -0.124752   1.070530  -9.551770  -0.451878  -4.729230  -1.232210  -0.000000   0.000000   0.000000
 -0.283955  89.491300   2.602100  -2.729710 -10.545500  -0.788418   0.533625   6.049280  -0.385860   1.117920  12.094600  -0.835783   1.016810  -1.601750   0.032226   1.674170  -3.245070   5.390950  -8.332540  -3.719220   1.157370 -73.476700  17.815800   5.494090  -1.902140 -10.825800 -22.002800  12.524000  -8.818620  -0.433444  38.715900  29.432600 -54.690600 -30.751900  -0.003287  -0.001852 -10.376000  -0.001331  -0.001832 -25.781000   3.180300  -6.552320 -21.242700   0.003125   0.002242 -14.869900   0.002239  -0.000995 -27.877800  -1.681580   3.175230 -31.517900   0.008707   0.001729 -20.990900   0.002977   0.009015 -28.500900  -1.716070   3.156720 -36.718000   0.002763   0.004826 -24.454200   0.005420   0.003666 -37.084000  -2.168130   2.865240 -55.707500  -0.000688   0.002938 -37.101300  -0.001456   0.001359  12.957800  -0.548345  10.494500  68.591600  14.004300  -5.328490  -2.620740  -4.417360  16.088500 -12.750900  -5.446960   4.378770 -39.447700  29.604800  62.167500  27.675200  -0.008269  -0.010198   8.842730  -0.003463  -0.007757  26.947000   8.051780  15.404400  22.939900   0.001915  -0.003378  16.059200   0.000673  -0.002668  28.232600   2.689970   4.997110  34.575900  -0.006238  -0.001739  23.027600   0.010896   0.012193  28.574400   2.720490   4.980570  38.913900   0.001690   0.002016  25.916600   0.001856   0.000792  27.592700   1.615720   3.088140  41.454300  -0.004768  -0.000984  27.608600  -0.001420  -0.000646   2.489410  13.866700   5.525810   1.375550   0.000923   5.206570  -1.284920  -3.990020   1.889230  -0.000000   0.000000   0.000000   2.738730  13.468300   0.285641  -0.126061   1.060100  -9.567310  -0.450433  -4.710170  -1.217490  -0.000000   0.000000   0.000000
 -0.283896  89.491300   2.589450  -2.731100 -10.555900  -0.774003   0.534601   6.059850  -0.392928   1.120680  12.115700  -0.850249   1.035330  -1.629710   0.032175   1.705270  -3.301630   5.391370  -8.328470  -3.678590   1.236470 -73.540900  17.960400   5.305580  -1.836240 -10.989300 -21.967000  12.484900  -9.012290  -0.329324  38.695600  29.391000 -54.624100 -30.759000  -0.003352  -0.001898 -10.379500  -0.001361  -0.001870 -25.782300   3.150050  -6.490190 -21.240300   0.003075   0.002221 -14.868200   0.002224  -0.001010 -27.873500  -1.709390   3.228150 -31.505700   0.008865   0.001587 -20.982800   0.003036   0.009170 -28.495800  -1.744370   3.209390 -36.674400   0.002765   0.004840 -24.425200   0.005499   0.003675 -37.077000  -2.205280   2.912950 -55.702000  -0.000679   0.003005 -37.097600  -0.001483   0.001394  12.966800  -0.558203  10.533700  68.588400  14.018700  -5.339190  -2.618380  -4.424970  16.095300 -12.761900  -5.454350   4.382830 -39.450800  29.610200  62.170600  27.679100  -0.008269  -0.010192   8.842790  -0.003461  -0.007746  26.947500   8.057020  15.413300  22.941800   0.001912  -0.003373  16.060000   0.000671  -0.002664  28.231500   2.695330   5.009130  34.583000  -0.006231  -0.001739  23.032300   0.010904   0.012187  28.574200   2.725840   4.992560  38.923000   0.001695   0.002000  25.922600   0.001847   0.000784  27.603000   1.614440   3.084720  41.469700  -0.004769  -0.000986  27.618900  -0.001421  -0.000651   2.499880  13.862600   5.512210   1.369730   0.012385   5.209900  -1.286520  -3.992090   1.880260  -0.000000   0.000000   0.000000   2.745710  13.475100   0.281525  -0.127717   1.048460  -9.583830  -0.450205  -4.694860  -1.212030   0.000000   0.000000  -0.000000
 -0.283486  89.491200   2.576350  -2.729800 -10.571800  -0.749309   0.536459   6.075180  -0.408288   1.126320  12.146100  -0.881638   1.051730  -1.655880   0.032142   1.731860  -3.354610   5.392460  -8.324120  -3.652880   1.333740 -73.630000  18.137000   5.078060  -1.739920 -11.224900 -21.910100  12.432200  -9.182560  -0.181790  38.678700  29.377300 -54.573100 -30.784600  -0.003424  -0.001967 -10.392300  -0.001390  -0.001908 -25.772600   3.116570  -6.424600 -21.230000   0.003009   0.002195 -14.861000   0.002202  -0.001031 -27.863200  -1.731800   3.271760 -31.447800   0.009059   0.001414 -20.944200   0.003108   0.009361 -28.482800  -1.767090   3.252840 -36.527100   0.002767   0.004857 -24.327100   0.005595   0.003686 -37.051200  -2.232190   2.953160 -55.663200  -0.000668   0.003076 -37.071700  -0.001512   0.001432  12.973100  -0.574920  10.585000  68.578000  14.025200  -5.345000  -2.618420  -4.428030  16.104400 -12.772000  -5.462470   4.390290 -39.452500  29.620100  62.178700  27.686500  -0.008269  -0.010191   8.843220  -0.003460  -0.007726  26.954400   8.061530  15.416300  22.947700   0.001906  -0.003368  16.063400   0.000667  -0.002656  28.230900   2.698070   5.015830  34.592000  -0.006220  -0.001739  23.038200   0.010915   0.012180  28.575100   2.728570   4.999250  38.939400   0.001702   0.001979  25.933600   0.001835   0.000772  27.617600   1.612090   3.078310  41.491400  -0.004769  -0.000988  27.633300  -0.001421  -0.000656   2.510180  13.854500   5.495520   1.363640   0.040017   5.211220  -1.289210  -3.998630   1.866360  -0.000000   0.000000   0.000000   2.753630  13.485900   0.273256  -0.128681   1.041220  -9.599980  -0.450205  -4.681420  -1.210600  -0.000000   0.000000  -0.000000
